<svg width="100" height="100" version="1.1" xmlns="http://www.w3.org/2000/svg" desc="Created with imagetracer.js version 1.2.6" ><path fill="rgb(250,239,204)" stroke="rgb(250,239,204)" stroke-width="1" opacity="1" d="M 74.5 12 L 80 12.5 L 74.5 13 L 74.5 12 Z " /><path fill="rgb(250,239,204)" stroke="rgb(250,239,204)" stroke-width="1" opacity="1" d="M 45.5 23 L 44.5 25 L 45.5 23 Z " /><path fill="rgb(250,239,204)" stroke="rgb(250,239,204)" stroke-width="1" opacity="1" d="M 79.5 23 L 80 25.5 L 78.5 25 Q 55.1 28.1 44 43.5 Q 36.9 52.4 34.5 66 L 34 57.5 Q 38 43.5 47.5 35 L 60.5 27 L 79.5 23 Z " /><path fill="rgb(250,239,204)" stroke="rgb(250,239,204)" stroke-width="1" opacity="1" d="M 39.5 28 L 36.5 32 L 39.5 28 Z " /><path fill="rgb(250,239,204)" stroke="rgb(250,239,204)" stroke-width="1" opacity="1" d="M 34.5 34 L 32.5 37 L 34.5 34 Z " /><path fill="rgb(245,72,33)" stroke="rgb(245,72,33)" stroke-width="1" opacity="1" d="M 73.5 13 L 79 13 L 79 23 L 67.5 24 L 61.5 26 Q 49.3 30.8 42 40.5 L 34 54.5 L 31 71 L 21 71 L 21 65.5 L 29 42.5 Q 35.5 31.5 45.5 24 L 57.5 17 L 73.5 13 Z M 71 20 L 71 21 L 73 21 L 71 20 Z M 66 21 Q 52 25 43 34 Q 44 36 42 35 L 37 41 Q 36 43 39 42 L 43 37 Q 52 25 69 22 L 66 21 Z " /><path fill="rgb(160,207,45)" stroke="rgb(160,207,45)" stroke-width="1" opacity="1" d="M 59.5 23 L 61 23.5 L 57 25 L 56.5 27 L 55 26.5 Q 55.8 28.8 53.5 28 L 43 36.5 L 38.5 42 L 36.5 43 L 37 41.5 L 41.5 35 Q 43.8 35.8 43 33.5 L 59.5 23 Z " /><path fill="rgb(160,207,45)" stroke="rgb(160,207,45)" stroke-width="1" opacity="1" d="M 73.5 23 L 79 23.5 L 64.5 26 L 64.5 25 L 73.5 23 Z " /><path fill="rgb(160,207,45)" stroke="rgb(160,207,45)" stroke-width="1" opacity="1" d="M 75.5 25 Q 79.9 23.5 79 26.5 L 80 32 Q 58.5 33.2 49 47.5 Q 41.4 56 41 71 L 31 71 L 31 67.5 L 33.5 58 L 34.5 66 Q 37.7 48.7 48.5 39 Q 58.3 28.3 75.5 25 Z " /><path fill="rgb(160,207,45)" stroke="rgb(160,207,45)" stroke-width="1" opacity="1" d="M 53.5 30 L 52.5 32 L 53.5 30 Z " /><path fill="rgb(160,207,45)" stroke="rgb(160,207,45)" stroke-width="1" opacity="1" d="M 49.5 33 L 48.5 35 L 49.5 33 Z " /><path fill="rgb(160,207,45)" stroke="rgb(160,207,45)" stroke-width="1" opacity="1" d="M 43.5 39 L 42.5 41 L 43.5 39 Z " /><path fill="rgb(160,207,45)" stroke="rgb(160,207,45)" stroke-width="1" opacity="1" d="M 40.5 43 L 39.5 45 L 40.5 43 Z " /><path fill="rgb(160,207,45)" stroke="rgb(160,207,45)" stroke-width="1" opacity="1" d="M 34.5 54 L 35 56.5 L 34 56.5 L 34.5 54 Z " /><path fill="rgb(247,139,134)" stroke="rgb(247,139,134)" stroke-width="1" opacity="1" d="M 70.5 13 L 73 13.5 L 70.5 14 L 70.5 13 Z " /><path fill="rgb(247,139,134)" stroke="rgb(247,139,134)" stroke-width="1" opacity="1" d="M 79.5 13 L 80 22.5 L 79 22.5 L 79.5 13 Z " /><path fill="rgb(247,139,134)" stroke="rgb(247,139,134)" stroke-width="1" opacity="1" d="M 56.5 17 L 55.5 19 L 52.5 20 L 52.5 19 L 56.5 17 Z " /><path fill="rgb(247,139,134)" stroke="rgb(247,139,134)" stroke-width="1" opacity="1" d="M 50.5 20 L 49.5 22 L 50.5 20 Z " /><path fill="rgb(247,139,134)" stroke="rgb(247,139,134)" stroke-width="1" opacity="1" d="M 55.5 20 L 57 20.5 L 52.5 23 L 53.5 21 L 55.5 20 Z " /><path fill="rgb(247,139,134)" stroke="rgb(247,139,134)" stroke-width="1" opacity="1" d="M 70.5 20 L 73 20.5 L 70.5 21 L 70.5 20 Z " /><path fill="rgb(247,139,134)" stroke="rgb(247,139,134)" stroke-width="1" opacity="1" d="M 66.5 21 L 69 21.5 L 61.5 24 L 61.5 23 L 66.5 21 Z " /><path fill="rgb(247,139,134)" stroke="rgb(247,139,134)" stroke-width="1" opacity="1" d="M 47.5 22 L 46.5 24 L 47.5 22 Z " /><path fill="rgb(247,139,134)" stroke="rgb(247,139,134)" stroke-width="1" opacity="1" d="M 50.5 23 L 49.5 25 L 50.5 23 Z " /><path fill="rgb(247,139,134)" stroke="rgb(247,139,134)" stroke-width="1" opacity="1" d="M 43.5 25 L 35.5 34 L 43.5 25 Z " /><path fill="rgb(247,139,134)" stroke="rgb(247,139,134)" stroke-width="1" opacity="1" d="M 47.5 25 L 45.5 28 L 47.5 25 Z " /><path fill="rgb(247,139,134)" stroke="rgb(247,139,134)" stroke-width="1" opacity="1" d="M 51.5 36 L 49.5 39 L 51.5 36 Z " /><path fill="rgb(247,139,134)" stroke="rgb(247,139,134)" stroke-width="1" opacity="1" d="M 32.5 37 L 31.5 39 L 32.5 37 Z " /><path fill="rgb(247,139,134)" stroke="rgb(247,139,134)" stroke-width="1" opacity="1" d="M 30.5 40 L 29.5 42 L 30.5 40 Z " /><path fill="rgb(247,139,134)" stroke="rgb(247,139,134)" stroke-width="1" opacity="1" d="M 59.5 50 L 58.5 52 L 59.5 50 Z " /><path fill="rgb(247,139,134)" stroke="rgb(247,139,134)" stroke-width="1" opacity="1" d="M 20.5 67 L 21 70.5 L 20 70.5 L 20.5 67 Z " /><path fill="rgb(68,95,223)" stroke="rgb(68,95,223)" stroke-width="1" opacity="1" d="M 73.5 32 L 80 32 L 80 40.5 L 78.5 42 L 71.5 43 L 58 51.5 Q 51.4 59.1 50 71 L 41 71 L 41 65.5 Q 44.7 47.7 57.5 39 L 73.5 32 Z " /><path fill="rgb(254,254,254)" stroke="rgb(254,254,254)" stroke-width="1" opacity="1" d="M 69.5 12 L 74 12.5 L 69.5 13 L 69.5 12 Z " /><path fill="rgb(254,254,254)" stroke="rgb(254,254,254)" stroke-width="1" opacity="1" d="M 63.5 13 L 68 13.5 L 61.5 15 L 61.5 14 L 63.5 13 Z " /><path fill="rgb(254,254,254)" stroke="rgb(254,254,254)" stroke-width="1" opacity="1" d="M 41.5 26 L 40.5 28 L 41.5 26 Z " /><path fill="rgb(254,254,254)" stroke="rgb(254,254,254)" stroke-width="1" opacity="1" d="M 35.5 32 L 34.5 34 L 35.5 32 Z " /><path fill="rgb(254,254,254)" stroke="rgb(254,254,254)" stroke-width="1" opacity="1" d="M 75.5 42 L 80 42.5 L 75.5 43 L 75.5 42 Z " /><path fill="rgb(254,254,254)" stroke="rgb(254,254,254)" stroke-width="1" opacity="1" d="M 27.5 43 L 28 44.5 L 26.5 47 L 26 45.5 L 27.5 43 Z " /><path fill="rgb(254,254,254)" stroke="rgb(254,254,254)" stroke-width="1" opacity="1" d="M 62.5 48 L 57 54.5 L 55.5 57 L 56 55.5 L 62.5 48 Z " /><path fill="rgb(254,254,254)" stroke="rgb(254,254,254)" stroke-width="1" opacity="1" d="M 20.5 62 L 21 65.5 L 20 65.5 L 20.5 62 Z " /><path fill="rgb(254,254,254)" stroke="rgb(254,254,254)" stroke-width="1" opacity="1" d="M 20.5 71 L 34 71.5 L 27.5 73 Q 26 70.5 20.5 72 L 20.5 71 Z " /><path fill="rgb(254,254,254)" stroke="rgb(254,254,254)" stroke-width="1" opacity="1" d="M 35.5 71 L 51 71.5 L 35.5 72 L 35.5 71 Z " /><path fill="rgb(255,255,255)" stroke="rgb(255,255,255)" stroke-width="1" opacity="1" d="M 0 0 L 100 0 L 100 100 L 0 100 L 0 0 Z M 70 12 Q 52 16 42 26 Q 32 34 26 46 L 20 63 L 20 72 L 27 72 L 28 73 L 35 71 L 36 72 L 51 72 Q 51 61 57 55 Q 64 44 80 43 L 80 12 L 70 12 Z " /></svg>